<svg id="Design" xmlns="http://www.w3.org/2000/svg" viewBox="0 0 632.12 198.43"><defs><style>.cls-1{fill:none;}.cls-2{fill:#b6bcbf;}</style></defs><title>KIOXIA_BrandLogo_SIL_CMYK</title><rect class="cls-1" width="632.12" height="198.43"/><path class="cls-2" d="M221.19,276.38h30.48a1.48,1.48,0,0,1,1.16,2.41l-37.06,46.64a.89.89,0,0,0,0,1.11l37.06,46.64a1.48,1.48,0,0,1-1.16,2.41H221.19A1.48,1.48,0,0,1,220,375l-28-36.28a.89.89,0,0,0-.71-.34h-8.8a.44.44,0,0,0-.44.44V374.1a1.49,1.49,0,0,1-1.49,1.49h-24.8a1.49,1.49,0,0,1-1.49-1.49V277.87a1.48,1.48,0,0,1,1.49-1.49h24.8a1.49,1.49,0,0,1,1.49,1.49v35.27a.44.44,0,0,0,.44.44h8.8a.92.92,0,0,0,.71-.34L220,277A1.48,1.48,0,0,1,221.19,276.38Zm198,49.6c0,28.94-23.2,52.39-55.22,52.39S308.72,354.92,308.72,326s23.2-52.38,55.21-52.38S419.15,297.05,419.15,326Zm-27.73,0c0-15.45-11.55-28-27.49-28s-27.48,12.52-27.48,28,11.55,28,27.48,28S391.42,341.44,391.42,326ZM266.55,375.59h26.79a1.49,1.49,0,0,0,1.49-1.49V277.87a1.49,1.49,0,0,0-1.49-1.49H266.55a1.48,1.48,0,0,0-1.48,1.49V374.1A1.49,1.49,0,0,0,266.55,375.59Zm256.33-99.21H492.41a1.48,1.48,0,0,0-1.18.58l-22.09,28.61a.45.45,0,0,1-.71,0L446.34,277a1.48,1.48,0,0,0-1.18-.58H414.69a1.49,1.49,0,0,0-1.17,2.41l37.07,46.64a.89.89,0,0,1,0,1.11l-37.07,46.64a1.49,1.49,0,0,0,1.17,2.41h30.47a1.48,1.48,0,0,0,1.18-.58l22.09-28.61a.45.45,0,0,1,.71,0L491.23,375a1.48,1.48,0,0,0,1.18.58h30.47a1.49,1.49,0,0,0,1.17-2.41L487,326.54a.89.89,0,0,1,0-1.11l37.07-46.64A1.49,1.49,0,0,0,522.88,276.38Zm135.65,98.21-4.81-13.78a.88.88,0,0,0-.84-.6H612.24a.88.88,0,0,0-.84.6l-4.81,13.78a1.48,1.48,0,0,1-1.4,1H579.44a1.49,1.49,0,0,1-1.41-2l33.56-96.23a1.49,1.49,0,0,1,1.41-1h39.12a1.49,1.49,0,0,1,1.41,1l33.56,96.23a1.49,1.49,0,0,1-1.41,2H659.94A1.49,1.49,0,0,1,658.53,374.59Zm-26.39-77.07-12.82,37.7a.89.89,0,0,0,.84,1.18H645a.89.89,0,0,0,.84-1.18L633,297.52A.44.44,0,0,0,632.14,297.52Zm-94.37,78.07h26.79A1.49,1.49,0,0,0,566,374.1V277.87a1.48,1.48,0,0,0-1.48-1.49H537.77a1.49,1.49,0,0,0-1.49,1.49V374.1A1.49,1.49,0,0,0,537.77,375.59Z" transform="translate(-104.66 -226.77)"/></svg>